####
#
# OBJ File Generated by Meshlab
#
####
# Object pedestal.obj
#
# Vertices: 80
# Faces: 20
#
####
mtllib ./pedestal.obj.mtl

vn 1.570799 0.000000 -1.570796
v -5.750000 0.000000 -1.922739 0.752941 0.752941 0.752941
vn 1.570796 0.000000 1.570796
v -5.750000 0.000000 -1.422740 0.752941 0.752941 0.752941
vn -1.570796 0.000000 1.570796
v -6.250000 0.000000 -1.422740 0.752941 0.752941 0.752941
vn -1.570793 0.000000 -1.570796
v -6.250000 0.000000 -1.922740 0.752941 0.752941 0.752941
vn 1.570797 1.570797 -1.570796
v -5.750000 1.200000 -1.922739 0.752941 0.752941 0.752941
vn 1.570796 1.570796 1.570796
v -5.750000 1.200000 -1.422740 0.752941 0.752941 0.752941
vn -1.570796 1.570796 1.570796
v -6.250000 1.200000 -1.422740 0.752941 0.752941 0.752941
vn -1.570797 1.570798 -1.570796
v -6.250000 1.200000 -1.922739 0.752941 0.752941 0.752941
vn 1.570796 0.000000 -1.570796
v -5.800000 1.210668 -1.872740 0.752941 0.752941 0.752941
vn 1.570796 0.000000 1.570796
v -5.800000 1.210668 -1.472740 0.752941 0.752941 0.752941
vn -1.570796 0.000000 1.570796
v -6.200000 1.210668 -1.472740 0.752941 0.752941 0.752941
vn -1.570796 0.000000 -1.570796
v -6.200000 1.210668 -1.872740 0.752941 0.752941 0.752941
vn 1.570796 1.570796 -1.570796
v -5.800000 1.410668 -1.872740 0.752941 0.752941 0.752941
vn 1.570796 1.570796 1.570796
v -5.800000 1.410668 -1.472740 0.752941 0.752941 0.752941
vn -1.570796 1.570796 1.570796
v -6.200000 1.410668 -1.472740 0.752941 0.752941 0.752941
vn -1.570796 1.570796 -1.570796
v -6.200000 1.410668 -1.872740 0.752941 0.752941 0.752941
vn 1.570801 0.000000 -1.570796
v -2.800000 1.210668 -1.872739 0.752941 0.752941 0.752941
vn 1.570799 -0.000006 1.570796
v -2.800000 1.210668 -1.472740 0.752941 0.752941 0.752941
vn -1.570796 0.000000 1.570796
v -3.200000 1.210668 -1.472740 0.752941 0.752941 0.752941
vn -1.570790 0.000006 -1.570796
v -3.200000 1.210668 -1.872740 0.752941 0.752941 0.752941
vn 1.570799 1.570799 -1.570796
v -2.800000 1.410668 -1.872739 0.752941 0.752941 0.752941
vn 1.570787 1.570785 1.570796
v -2.800000 1.410668 -1.472739 0.752941 0.752941 0.752941
vn -1.570798 1.570797 1.570796
v -3.200000 1.410668 -1.472740 0.752941 0.752941 0.752941
vn -1.570802 1.570805 -1.570796
v -3.200000 1.410668 -1.872739 0.752941 0.752941 0.752941
vn 1.570799 0.000001 -1.570796
v -2.750000 0.000000 -1.922739 0.752941 0.752941 0.752941
vn 1.570796 0.000001 1.570796
v -2.750000 0.000000 -1.422740 0.752941 0.752941 0.752941
vn -1.570796 0.000000 1.570796
v -3.250000 0.000000 -1.422740 0.752941 0.752941 0.752941
vn -1.570793 0.000000 -1.570796
v -3.250000 0.000000 -1.922740 0.752941 0.752941 0.752941
vn 1.570797 1.570795 -1.570793
v -2.750000 1.200000 -1.922739 0.752941 0.752941 0.752941
vn 1.570796 1.570799 1.570799
v -2.750001 1.200000 -1.422740 0.752941 0.752941 0.752941
vn -1.570796 1.570796 1.570796
v -3.250000 1.200000 -1.422740 0.752941 0.752941 0.752941
vn -1.570797 1.570798 -1.570796
v -3.250000 1.200000 -1.922739 0.752941 0.752941 0.752941
vn 1.570796 0.000000 -1.570796
v 6.249999 0.000000 -1.922739 0.752941 0.752941 0.752941
vn 1.570793 0.000000 1.570796
v 6.249999 0.000000 -1.422739 0.752941 0.752941 0.752941
vn -1.570799 0.000000 1.570796
v 5.749999 0.000000 -1.422740 0.752941 0.752941 0.752941
vn -1.570796 0.000000 -1.570796
v 5.749999 0.000000 -1.922739 0.752941 0.752941 0.752941
vn 1.570796 1.570796 -1.570796
v 6.249999 1.200000 -1.922739 0.752941 0.752941 0.752941
vn 1.570793 1.570794 1.570796
v 6.249999 1.200000 -1.422739 0.752941 0.752941 0.752941
vn -1.570799 1.570798 1.570796
v 5.749999 1.200000 -1.422740 0.752941 0.752941 0.752941
vn -1.570796 1.570796 -1.570796
v 5.749999 1.200000 -1.922739 0.752941 0.752941 0.752941
vn 1.570796 0.000000 -1.570796
v 6.199999 1.210668 -1.872739 0.752941 0.752941 0.752941
vn 1.570796 0.000000 1.570796
v 6.199999 1.210668 -1.472739 0.752941 0.752941 0.752941
vn -1.570796 0.000000 1.570796
v 5.799999 1.210668 -1.472739 0.752941 0.752941 0.752941
vn -1.570796 0.000000 -1.570796
v 5.799999 1.210668 -1.872739 0.752941 0.752941 0.752941
vn 1.570796 1.570796 -1.570796
v 6.199999 1.410668 -1.872739 0.752941 0.752941 0.752941
vn 1.570796 1.570796 1.570796
v 6.199999 1.410668 -1.472739 0.752941 0.752941 0.752941
vn -1.570796 1.570796 1.570796
v 5.799999 1.410668 -1.472739 0.752941 0.752941 0.752941
vn -1.570796 1.570796 -1.570796
v 5.799999 1.410668 -1.872739 0.752941 0.752941 0.752941
vn 1.570801 0.000000 -1.570796
v 3.199999 1.210668 -1.872739 0.752941 0.752941 0.752941
vn 1.570799 -0.000006 1.570796
v 3.199999 1.210668 -1.472740 0.752941 0.752941 0.752941
vn -1.570796 0.000000 1.570796
v 2.799999 1.210668 -1.472740 0.752941 0.752941 0.752941
vn -1.570790 0.000006 -1.570796
v 2.799999 1.210668 -1.872740 0.752941 0.752941 0.752941
vn 1.570799 1.570799 -1.570796
v 3.199999 1.410668 -1.872739 0.752941 0.752941 0.752941
vn 1.570787 1.570785 1.570796
v 3.199999 1.410668 -1.472739 0.752941 0.752941 0.752941
vn -1.570798 1.570797 1.570796
v 2.799999 1.410668 -1.472740 0.752941 0.752941 0.752941
vn -1.570802 1.570805 -1.570796
v 2.799999 1.410668 -1.872739 0.752941 0.752941 0.752941
vn 1.570799 0.000000 -1.570796
v 3.249999 0.000000 -1.922739 0.752941 0.752941 0.752941
vn 1.570796 0.000000 1.570796
v 3.249999 0.000000 -1.422740 0.752941 0.752941 0.752941
vn -1.570796 0.000000 1.570796
v 2.749999 0.000000 -1.422740 0.752941 0.752941 0.752941
vn -1.570793 0.000000 -1.570796
v 2.749999 0.000000 -1.922740 0.752941 0.752941 0.752941
vn 1.570797 1.570797 -1.570796
v 3.249999 1.200000 -1.922739 0.752941 0.752941 0.752941
vn 1.570796 1.570796 1.570796
v 3.249999 1.200000 -1.422740 0.752941 0.752941 0.752941
vn -1.570796 1.570796 1.570796
v 2.749999 1.200000 -1.422740 0.752941 0.752941 0.752941
vn -1.570797 1.570798 -1.570796
v 2.749999 1.200000 -1.922739 0.752941 0.752941 0.752941
vn 1.570796 0.000000 -1.570796
v 0.250000 0.000000 -13.922741 0.752941 0.752941 0.752941
vn 1.570796 0.000000 1.570796
v 0.250000 0.000000 -13.422741 0.752941 0.752941 0.752941
vn -1.570796 0.000000 1.570796
v -0.250000 0.000000 -13.422741 0.752941 0.752941 0.752941
vn -1.570796 0.000000 -1.570796
v -0.250000 0.000000 -13.922741 0.752941 0.752941 0.752941
vn 1.570796 1.570796 -1.570796
v 0.250000 1.200000 -13.922741 0.752941 0.752941 0.752941
vn 1.570796 1.570796 1.570796
v 0.250000 1.200000 -13.422741 0.752941 0.752941 0.752941
vn -1.570796 1.570796 1.570796
v -0.250000 1.200000 -13.422741 0.752941 0.752941 0.752941
vn -1.570796 1.570796 -1.570796
v -0.250000 1.200000 -13.922741 0.000000 0.000000 0.000000
vn 1.570796 -1.570796 -1.570796
v 0.200000 1.210668 -13.872740 0.752941 0.752941 0.752941
vn 1.570796 -1.570796 1.570796
v 0.200000 1.210668 -13.472740 0.752941 0.752941 0.752941
vn -1.570796 -1.570796 1.570796
v -0.200000 1.210668 -13.472740 0.752941 0.752941 0.752941
vn -1.570796 -1.570796 -1.570796
v -0.200000 1.210668 -13.872740 0.000000 0.000000 0.000000
vn 1.570796 1.570796 -1.570796
v 0.200000 1.410668 -13.872740 0.752941 0.752941 0.752941
vn 1.570796 1.570796 1.570796
v 0.200000 1.410668 -13.472740 0.752941 0.752941 0.752941
vn -1.570796 1.570796 1.570796
v -0.200000 1.410668 -13.472740 0.752941 0.752941 0.752941
vn -1.570796 1.570796 -1.570796
v -0.200000 1.410668 -13.872740 0.466667 0.466667 0.466667
# 80 vertices, 0 vertices normals


usemtl material_0
vt 0.185200 0.857100
vt 0.185200 0.946400
vt 0.092600 0.946400
f 5/1/5 8/2/8 7/3/7
vt 0.092600 0.857100
f 5/1/5 7/3/7 6/4/6
vt 0.370400 0.428600
vt 0.370400 0.857100
vt 0.277800 0.857100
f 1/5/1 5/6/5 6/7/6
vt 0.277800 0.428600
f 1/5/1 6/7/6 2/8/2
vt 0.463000 0.428600
f 2/6/2 6/5/6 7/9/7
vt 0.463000 0.857100
f 2/6/2 7/9/7 3/10/3
vt 0.833300 0.000000
vt 0.833300 0.428600
vt 0.740700 0.428600
f 3/11/3 7/12/7 8/13/8
vt 0.740700 0.000000
f 3/11/3 8/13/8 4/14/4
vt 0.648100 0.000000
vt 0.648100 0.428600
vt 0.555600 0.428600
f 5/15/5 1/16/1 4/17/4
vt 0.555600 0.000000
f 5/15/5 4/17/4 8/18/8
vt 1.000000 0.714300
vt 1.000000 0.785700
vt 0.925900 0.785700
f 13/19/13 16/20/16 15/21/15
vt 0.925900 0.714300
f 13/19/13 15/21/15 14/22/14
vt 1.000000 0.071400
vt 0.925900 0.071400
vt 0.925900 0.000000
f 9/23/9 13/24/13 14/25/14
vt 1.000000 0.000000
f 9/23/9 14/25/14 10/26/10
vt 1.000000 0.357100
vt 0.925900 0.357100
vt 0.925900 0.285700
f 10/27/10 14/28/14 15/29/15
vt 1.000000 0.285700
f 10/27/10 15/29/15 11/30/11
vt 1.000000 0.142900
vt 0.925900 0.142900
f 11/31/11 15/32/15 16/24/16
f 11/31/11 16/24/16 12/23/12
vt 1.000000 0.214300
f 13/32/13 9/31/9 12/33/12
vt 0.925900 0.214300
f 13/32/13 12/33/12 16/34/16
# 20 faces, 34 coords texture

# End of File